<?xml version="1.0" encoding="UTF-8" standalone="no"?>
<svg
   xmlns:dc="http://purl.org/dc/elements/1.1/"
   xmlns:cc="http://creativecommons.org/ns#"
   xmlns:rdf="http://www.w3.org/1999/02/22-rdf-syntax-ns#"
   xmlns:svg="http://www.w3.org/2000/svg"
   xmlns="http://www.w3.org/2000/svg"
   xmlns:sodipodi="http://sodipodi.sourceforge.net/DTD/sodipodi-0.dtd"
   xmlns:inkscape="http://www.inkscape.org/namespaces/inkscape"
   width="1028"
   height="1028"
   version="1.1"
   id="svg8"
   sodipodi:docname="TeX_logo.svg"
   inkscape:version="1.0.2 (e86c870879, 2021-01-15)">
  <metadata
     id="metadata14">
    <rdf:RDF>
      <cc:Work
         rdf:about="">
        <dc:format>image/svg+xml</dc:format>
        <dc:type
           rdf:resource="http://purl.org/dc/dcmitype/StillImage" />
        <dc:title></dc:title>
      </cc:Work>
    </rdf:RDF>
  </metadata>
  <defs
     id="defs12" />
  <sodipodi:namedview
     pagecolor="#ffffff"
     bordercolor="#666666"
     borderopacity="1"
     objecttolerance="10"
     gridtolerance="10"
     guidetolerance="10"
     inkscape:pageopacity="0"
     inkscape:pageshadow="2"
     inkscape:window-width="1920"
     inkscape:window-height="1054"
     id="namedview10"
     showgrid="false"
     inkscape:zoom="0.53898305"
     inkscape:cx="287.715"
     inkscape:cy="600.32078"
     inkscape:window-x="0"
     inkscape:window-y="26"
     inkscape:window-maximized="1"
     inkscape:current-layer="svg8" />
  <path
     d="M 364.09,242.78 H 14.82 L 4.61,376.55 H 15.48 C 23.3,276.36 31.89,258.82 125.69,258.82 c 10.87,0 28.53,0 33.39,0 11.55,1.81 11.55,9.16 11.55,23.08 v 329.26 c 0,21.86 -1.83,28.53 -52.78,28.53 h -17.17 v 14.61 c 29.02,-0.56 59.26,-1.15 88.93,-1.15 29.58,0 59.91,0.59 88.91,1.15 v -14.61 h -16.88 c -50.19,0 -52,-6.67 -52,-28.53 V 281.91 c 0,-13.36 0,-20.61 10.89,-23.08 h 33.19 c 92.55,0 101.61,17.44 109.42,117.73 h 10.89"
     id="path2"
     style="fill:#d6281c;fill-opacity:1" />
  <path
     d="M 667.6,633.21 H 656.73 C 643.47,722.9 635.65,771.65 529.26,771.65 h -83.95 c -24.16,0 -25.3,-3.05 -25.3,-23.86 V 578.72 h 57.06 c 57.06,0 62.5,20.91 62.5,71.96 h 9.72 V 493.33 h -9.72 c 0,50.19 -5.45,70.71 -62.5,70.71 H 420 v -149.9 c 0,-20.42 1.15,-23.47 25.3,-23.47 H 528 c 93.6,0 104.49,37.2 112.97,117.17 h 10.9 L 637.36,374.06 H 331.1 v 16.61 c 42.84,0 49.7,0 49.7,27.19 v 326.42 c 0,27.19 -6.77,27.19 -49.7,27.19 v 14.61 h 314.76"
     id="path4"
     style="fill:#d6281c;fill-opacity:1" />
  <path
     d="m 830.66,425.4 89.49,-129.38 c 8.96,-12.7 27.19,-38.84 76.82,-39.5 v -14.6 c -13.85,1.15 -36.83,1.15 -51.34,1.15 -19.93,0 -44.75,0 -59.82,-1.15 v 14.61 c 19.37,1.81 24.13,13.92 24.13,23.67 0,7.23 -2.96,12.11 -7.25,18.12 L 822.84,414.14 733.35,283.15 c -4.2,-6.59 -4.79,-8.5 -4.79,-10.31 0,-5.45 6.59,-15.75 26.62,-16.32 v -14.6 c -19.37,1.15 -48.95,1.15 -68.88,1.15 -15.66,0 -45.89,0 -60.5,-1.15 v 14.61 c 33.22,0 44.09,1.25 57.45,20.03 L 799.93,447.93 694.71,601.64 c -25.96,37.59 -65.26,38.25 -76.82,38.25 v 14.61 c 13.82,-1.15 36.83,-1.15 51.34,-1.15 16.32,0 44.75,0 59.82,1.15 v -14.61 c -18.71,-1.81 -24.13,-13.92 -24.13,-23.67 0,-7.82 2.96,-12.11 6.01,-16.41 l 96.75,-141.2 105.22,154.66 c 4.76,6.69 4.76,8.5 4.76,10.31 0,4.76 -5.42,15.17 -26.6,16.41 v 14.61 c 19.37,-1.15 48.95,-1.15 68.88,-1.15 15.66,0 45.89,0 60.57,1.15 v -14.61 c -38.74,0 -44.84,-2.96 -56.86,-20.03"
     id="path6"
     style="fill:#d6281c;fill-opacity:1" />
</svg>
